<?xml version="1.0" encoding="utf-8"?>
<svg version="1.1" xmlns:xlink="http://www.w3.org/1999/xlink" width="24px" height="23px" xmlns="http://www.w3.org/2000/svg">
  <defs>
    <path d="M 0 0  L 1640 0  L 1640 1024  L 0 1024  Z " fill-rule="evenodd" fill="black" id="path111" />
    <clipPath id="clip112">
      <use xlink:href="#path111" />
    </clipPath>
    <filter x="-50.00%" y="-50.00%" width="200.00%" height="200.00%" filterUnits="objectBoundingBox" id="filter113">
      <feColorMatrix type="matrix" values="1 0 0 0 0  0 1 0 0 0  0 0 1 0 0  0 0 0 1 0  " in="SourceGraphic" />
    </filter>
  </defs>
  <g transform="matrix(1 0 0 1 -1246 -1649 )">
    <g transform="matrix(0.0146341463414634 0 0 0.0146341463414634 1246 1653.00731707317 )" clip-path="url(#clip112)" filter="url(#filter113)">
      <path d="M819.722189 870.4C1017.661389 870.4 1178.122189 709.9392 1178.122189 512 1178.122189 314.0608 1017.661389 153.6 819.722189 153.6 621.782989 153.6 461.322189 314.0608 461.322189 512 461.322189 709.9392 621.782989 870.4 819.722189 870.4L819.722189 870.4ZM819.722189 768C678.307789 768 563.722189 653.4144 563.722189 512 563.722189 370.5856 678.307789 256 819.722189 256 961.085389 256 1075.722189 370.5856 1075.722189 512 1075.722189 653.4144 961.085389 768 819.722189 768L819.722189 768ZM815.171123 102.4C978.643046 102.4 1152.447898 138.088653 1323.868211 285.297818 1386.024653 338.702746 1443.729971 396.562381 1495.606477 455.087667 1506.310349 467.171584 1520.193536 483.607808 1530.367437 495.691776 1538.421811 505.26679 1538.633779 518.73321 1530.632397 528.308224 1522.631014 537.883238 1510.973389 551.554458 1495.606477 568.912333 1443.729971 627.437619 1386.024653 685.297254 1323.868211 738.702182 1152.447898 885.911347 978.643046 921.6 815.171123 921.6 651.6992 921.6 477.894349 885.911347 306.474035 738.702182 244.317645 685.297254 186.612275 627.488819 134.73577 568.912333 129.171917 562.614374 122.7072 555.138714 116.348518 547.714253 98.544128 526.823322 98.385152 496.971878 116.242534 476.183347 121.647411 469.885389 127.794176 462.870528 134.682778 455.087667 186.559283 396.562381 244.264653 338.702746 306.421043 285.297818 477.894349 138.088653 651.6992 102.4 815.171123 102.4L815.171123 102.4ZM242.16448 208.7424C176.317952 265.4208 115.491789 326.6048 60.795853 388.4544 26.287155 427.4688 26.003661 430.462618 26.003661 430.462618-8.454963 475.239987-8.880179 548.209254 26.003661 593.328435 26.003661 593.328435 26.287155 596.48 60.795853 635.5456 115.491789 697.4464 176.317952 758.5792 242.16448 815.2576 430.667366 977.5616 625.458995 1024 819.722189 1024 1013.932493 1024 1208.77696 977.5616 1397.279846 815.2576 1463.126374 758.528 1523.952538 697.3952 1578.648474 635.5456 1613.157171 596.5312 1613.440666 593.537382 1613.440666 593.537382 1647.89929 548.760013 1648.324506 475.790746 1613.440666 430.671565 1613.440666 430.671565 1613.157171 427.52 1578.648474 388.4544 1523.952538 326.5536 1463.179264 265.4208 1397.279846 208.7424 1208.77696 46.4896 1013.932493 0 819.722189 0 625.511834 0 430.667366 46.4896 242.16448 208.7424Z" p-id="4768" fill="#ffffff"></path>
    </g>
  </g>
</svg>