<?xml version="1.0" encoding="utf-8"?>
<svg version="1.1" xmlns:xlink="http://www.w3.org/1999/xlink" width="30px" height="23px" xmlns="http://www.w3.org/2000/svg">
  <defs>
    <path d="M 0 0  L 1024 0  L 1024 1024  L 0 1024  Z " fill-rule="evenodd" fill="black" id="path107" />
    <clipPath id="clip108">
      <use xlink:href="#path107" />
    </clipPath>
    <filter x="-50.00%" y="-50.00%" width="200.00%" height="200.00%" filterUnits="objectBoundingBox" id="filter109">
      <feColorMatrix type="matrix" values="1 0 0 0 0  0 1 0 0 0  0 0 1 0 0  0 0 0 1 0  " in="SourceGraphic" />
    </filter>
  </defs>
  <g transform="matrix(1 0 0 1 -512 -655 )">
    <g transform="matrix(0.0224609375 0 0 0.0224609375 515.5 655 )" clip-path="url(#clip108)" filter="url(#filter109)">
      <path d="M1024 645.248v330.752a48 48 0 0 1-48 48H48a48 48 0 0 1-48-48v-330.752a48 48 0 0 1 96 0V928h832v-282.752a48 48 0 0 1 96 0z m-545.152 145.984a47.936 47.936 0 0 0 67.904 0l299.904-299.84a48 48 0 1 0-67.968-67.904l-217.792 217.856V48a48.064 48.064 0 0 0-96.064 0v593.472L246.912 423.552a48 48 0 1 0-67.904 67.904l299.84 299.776z" p-id="2958" fill="#ffffff"></path>
    </g>
  </g>
</svg>